<svg xmlns="http://www.w3.org/2000/svg" viewBox="0 0 320 104" fill="none" stroke="currentColor" stroke-width="1.2" stroke-linecap="round" stroke-linejoin="round">
  <rect x="1" y="1" width="318" height="101.5" rx="1.5"/>
  <line x1="7.5" y1="1" x2="7.5" y2="102.5"/>
  <line x1="313" y1="1" x2="313" y2="102.5"/>
  <line x1="48" y1="13.3" x2="313" y2="13.3"/>
  <rect x="283.7" y="6.7" width="23" height="3.6" rx="0.6"/>
  <line x1="48" y1="1" x2="48" y2="55.8"/>
  <line x1="7.5" y1="55.8" x2="48" y2="55.8"/>
  <rect x="9.5" y="13.7" width="36.7" height="32.6" rx="0.8"/>
  <line x1="9.5" y1="41.3" x2="46.2" y2="41.3"/>
  <rect x="18.3" y="21.3" width="17.5" height="7" rx="0.6"/>
  <line x1="19.8" y1="28.3" x2="34.3" y2="28.3"/>
  <rect x="11.3" y="60.8" width="34" height="39.2" rx="0.8"/>
  <line x1="11.3" y1="94.7" x2="45.3" y2="94.7"/>
  <rect x="20.3" y="71.3" width="4.7" height="19.5" rx="1"/>
  <rect x="31.7" y="71.3" width="4.7" height="19.5" rx="1"/>
  <line x1="20.8" y1="81" x2="24.5" y2="81"/>
  <line x1="32.2" y1="81" x2="35.9" y2="81"/>
  <rect x="48.5" y="14.2" width="263.5" height="31.6" rx="0.8"/>
  <line x1="49.5" y1="41.7" x2="311" y2="41.7"/>
  <line x1="48" y1="55.8" x2="313" y2="55.8"/>
  <circle cx="50.2" cy="5.3" r="0.8"/>
  <circle cx="50.2" cy="50.3" r="0.8"/>
  <circle cx="311.2" cy="50" r="0.8"/>
  <rect x="305" y="47.5" width="3.5" height="3.5" rx="0.5"/>
  <rect x="89.3" y="23.2" width="4.3" height="16.3" rx="0.5"/>
  <rect x="124.2" y="23.2" width="4.3" height="16.3" rx="0.5"/>
  <rect x="89.6" y="31.3" width="3.7" height="2.4" rx="0.4"/>
  <rect x="124.5" y="32.6" width="3.7" height="2.4" rx="0.4"/>
  <rect x="101.2" y="18.7" width="4.2" height="2.2" rx="0.5"/>
  <rect x="106.9" y="18.7" width="4.2" height="2.2" rx="0.5"/>
  <rect x="101.2" y="25.1" width="4.2" height="2.2" rx="0.5"/>
  <rect x="106.9" y="25.1" width="4.2" height="2.2" rx="0.5"/>
  <rect x="101.2" y="31.4" width="4.2" height="2.2" rx="0.5"/>
  <rect x="106.9" y="31.4" width="4.2" height="2.2" rx="0.5"/>
  <rect x="101.2" y="37.6" width="4.2" height="2.2" rx="0.5"/>
  <rect x="106.9" y="37.6" width="4.2" height="2.2" rx="0.5"/>
  <rect x="116.9" y="18.9" width="4.2" height="2.2" rx="0.5"/>
  <rect x="124.6" y="18.7" width="4.2" height="2.2" rx="0.5"/>
  <rect x="116.7" y="31.2" width="4.2" height="2.2" rx="0.5"/>
  <rect x="116.7" y="37.4" width="4.2" height="2.2" rx="0.5"/>
  <path d="M117.8 29.6L118.8 28.6L119.8 29.6"/>
  <rect x="142" y="24.2" width="69.8" height="10.3" rx="0.8"/>
  <line x1="145" y1="27.8" x2="206" y2="27.8"/>
  <line x1="145" y1="31.2" x2="198" y2="31.2"/>
  <rect x="155.4" y="18.7" width="4.6" height="2.2" rx="0.5"/>
  <rect x="155.4" y="37.4" width="4.6" height="2.2" rx="0.5"/>
  <rect x="167" y="18.7" width="4.6" height="2.2" rx="0.5"/>
  <rect x="167" y="37.4" width="4.6" height="2.2" rx="0.5"/>
  <rect x="178.9" y="18.7" width="4.6" height="2.2" rx="0.5"/>
  <rect x="178.9" y="37.4" width="4.6" height="2.2" rx="0.5"/>
  <rect x="190.7" y="18.7" width="4.6" height="2.2" rx="0.5"/>
  <rect x="190.7" y="37.4" width="4.6" height="2.2" rx="0.5"/>
  <rect x="202.4" y="18.7" width="4.6" height="2.2" rx="0.5"/>
  <rect x="202.4" y="37.4" width="4.6" height="2.2" rx="0.5"/>
  <line x1="215.7" y1="24.2" x2="215.7" y2="34.5"/>
  <line x1="216.3" y1="29.2" x2="230.3" y2="29.2"/>
  <path d="M216.3 29.2L218.9 24.4L222.1 30.7L224.2 27.9H228.3L230 29.2"/>
  <rect x="234.2" y="18.6" width="4.2" height="2.2" rx="0.5"/>
  <rect x="234.2" y="27.9" width="4.2" height="2.2" rx="0.5"/>
  <rect x="234.2" y="32.6" width="4.2" height="2.2" rx="0.5"/>
  <rect x="234.2" y="37.2" width="4.2" height="2.2" rx="0.5"/>
  <rect x="242.2" y="18.6" width="4.2" height="2.2" rx="0.5"/>
  <rect x="242.2" y="27.9" width="4.2" height="2.2" rx="0.5"/>
  <rect x="242.2" y="32.6" width="4.2" height="2.2" rx="0.5"/>
  <rect x="242.2" y="37.2" width="4.2" height="2.2" rx="0.5"/>
  <rect x="250.2" y="18.6" width="4.2" height="2.2" rx="0.5"/>
  <rect x="250.2" y="27.9" width="4.2" height="2.2" rx="0.5"/>
  <rect x="250.2" y="32.6" width="4.2" height="2.2" rx="0.5"/>
  <rect x="250.2" y="37.2" width="4.2" height="2.2" rx="0.5"/>
  <line x1="234.7" y1="23.7" x2="253.8" y2="23.7"/>
  <rect x="261.4" y="15" width="5.8" height="16.2" rx="0.5"/>
  <rect x="262.3" y="18.4" width="4" height="2.2" rx="0.5"/>
  <rect x="271.3" y="18.4" width="4" height="2.2" rx="0.5"/>
  <line x1="266.3" y1="19.5" x2="271.3" y2="19.5"/>
  <rect x="262.3" y="23.2" width="4" height="2.2" rx="0.5"/>
  <rect x="271.3" y="23.2" width="4" height="2.2" rx="0.5"/>
  <line x1="266.3" y1="24.3" x2="271.3" y2="24.3"/>
  <rect x="262.3" y="27.9" width="4" height="2.2" rx="0.5"/>
  <rect x="271.3" y="27.9" width="4" height="2.2" rx="0.5"/>
  <line x1="266.3" y1="29" x2="271.3" y2="29"/>
  <path d="M261.4 19.5H259.8V24.3H261.4"/>
  <rect x="280.3" y="23.2" width="4" height="2.2" rx="0.5"/>
  <rect x="288.3" y="23.2" width="4" height="2.2" rx="0.5"/>
  <path d="M275.3 19.5L280.3 24.3M275.3 24.3H280.3M275.3 29L280.3 24.3"/>
  <line x1="284.3" y1="24.3" x2="288.3" y2="24.3"/>
  <path d="M292.3 24.3L295.8 20.6H300.8M292.3 24.3H300.8"/>
  <rect x="265.2" y="32.6" width="4" height="2.2" rx="0.5"/>
  <rect x="271.3" y="32.6" width="4" height="2.2" rx="0.5"/>
  <rect x="277.3" y="32.6" width="4" height="2.2" rx="0.5"/>
  <rect x="262.3" y="37.2" width="4" height="2.2" rx="0.5"/>
  <rect x="268.3" y="37.2" width="4" height="2.2" rx="0.5"/>
  <rect x="274.3" y="37.2" width="4" height="2.2" rx="0.5"/>
  <rect x="280.3" y="37.2" width="4" height="2.2" rx="0.5"/>
  <rect x="288.3" y="32.4" width="4" height="2.2" rx="0.5"/>
  <rect x="288.3" y="37.2" width="4" height="2.2" rx="0.5"/>
  <rect x="48.3" y="57.5" width="263.4" height="42" rx="0.6"/>
  <line x1="55.6" y1="84.2" x2="55.6" y2="99.5"/>
  <line x1="62.9" y1="84.2" x2="62.9" y2="99.5"/>
  <line x1="70.2" y1="57.5" x2="70.2" y2="99.5"/>
  <line x1="77.6" y1="84.2" x2="77.6" y2="99.5"/>
  <line x1="84.9" y1="84.2" x2="84.9" y2="99.5"/>
  <line x1="92.2" y1="84.2" x2="92.2" y2="99.5"/>
  <line x1="99.5" y1="57.5" x2="99.5" y2="99.5"/>
  <line x1="106.8" y1="84.2" x2="106.8" y2="99.5"/>
  <line x1="114.1" y1="84.2" x2="114.1" y2="99.5"/>
  <line x1="121.5" y1="57.5" x2="121.5" y2="99.5"/>
  <line x1="128.8" y1="84.2" x2="128.8" y2="99.5"/>
  <line x1="136.1" y1="84.2" x2="136.1" y2="99.5"/>
  <line x1="143.4" y1="84.2" x2="143.4" y2="99.5"/>
  <line x1="150.7" y1="57.5" x2="150.7" y2="99.5"/>
  <line x1="158.1" y1="84.2" x2="158.1" y2="99.5"/>
  <line x1="165.4" y1="84.2" x2="165.4" y2="99.5"/>
  <line x1="172.7" y1="57.5" x2="172.7" y2="99.5"/>
  <line x1="180" y1="84.2" x2="180" y2="99.5"/>
  <line x1="187.3" y1="84.2" x2="187.3" y2="99.5"/>
  <line x1="194.6" y1="84.2" x2="194.6" y2="99.5"/>
  <line x1="201.9" y1="57.5" x2="201.9" y2="99.5"/>
  <line x1="209.3" y1="84.2" x2="209.3" y2="99.5"/>
  <line x1="216.6" y1="84.2" x2="216.6" y2="99.5"/>
  <line x1="223.9" y1="57.5" x2="223.9" y2="99.5"/>
  <line x1="231.2" y1="84.2" x2="231.2" y2="99.5"/>
  <line x1="238.5" y1="84.2" x2="238.5" y2="99.5"/>
  <line x1="245.8" y1="84.2" x2="245.8" y2="99.5"/>
  <line x1="253.2" y1="57.5" x2="253.2" y2="99.5"/>
  <line x1="260.5" y1="84.2" x2="260.5" y2="99.5"/>
  <line x1="267.8" y1="84.2" x2="267.8" y2="99.5"/>
  <line x1="275.1" y1="57.5" x2="275.1" y2="99.5"/>
  <line x1="282.4" y1="84.2" x2="282.4" y2="99.5"/>
  <line x1="289.8" y1="84.2" x2="289.8" y2="99.5"/>
  <line x1="297.1" y1="84.2" x2="297.1" y2="99.5"/>
  <line x1="304.4" y1="57.5" x2="304.4" y2="99.5"/>
  <rect x="53.5" y="57.5" width="4.2" height="26.7" rx="0.4"/>
  <rect x="60.8" y="57.5" width="4.2" height="26.7" rx="0.4"/>
  <rect x="75.4" y="57.5" width="4.2" height="26.7" rx="0.4"/>
  <rect x="82.8" y="57.5" width="4.2" height="26.7" rx="0.4"/>
  <rect x="90.1" y="57.5" width="4.2" height="26.7" rx="0.4"/>
  <rect x="104.7" y="57.5" width="4.2" height="26.7" rx="0.4"/>
  <rect x="112.0" y="57.5" width="4.2" height="26.7" rx="0.4"/>
  <rect x="126.7" y="57.5" width="4.2" height="26.7" rx="0.4"/>
  <rect x="134.0" y="57.5" width="4.2" height="26.7" rx="0.4"/>
  <rect x="141.3" y="57.5" width="4.2" height="26.7" rx="0.4"/>
  <rect x="155.9" y="57.5" width="4.2" height="26.7" rx="0.4"/>
  <rect x="163.2" y="57.5" width="4.2" height="26.7" rx="0.4"/>
  <rect x="177.9" y="57.5" width="4.2" height="26.7" rx="0.4"/>
  <rect x="185.2" y="57.5" width="4.2" height="26.7" rx="0.4"/>
  <rect x="192.5" y="57.5" width="4.2" height="26.7" rx="0.4"/>
  <rect x="207.1" y="57.5" width="4.2" height="26.7" rx="0.4"/>
  <rect x="214.5" y="57.5" width="4.2" height="26.7" rx="0.4"/>
  <rect x="229.1" y="57.5" width="4.2" height="26.7" rx="0.4"/>
  <rect x="236.4" y="57.5" width="4.2" height="26.7" rx="0.4"/>
  <rect x="243.7" y="57.5" width="4.2" height="26.7" rx="0.4"/>
  <rect x="258.4" y="57.5" width="4.2" height="26.7" rx="0.4"/>
  <rect x="265.7" y="57.5" width="4.2" height="26.7" rx="0.4"/>
  <rect x="280.3" y="57.5" width="4.2" height="26.7" rx="0.4"/>
  <rect x="287.6" y="57.5" width="4.2" height="26.7" rx="0.4"/>
  <rect x="294.9" y="57.5" width="4.2" height="26.7" rx="0.4"/>
</svg>
