<svg xmlns="http://www.w3.org/2000/svg" viewBox="0 0 320 70" fill="none" stroke="currentColor" stroke-width="1.2" stroke-linecap="round" stroke-linejoin="round">
  <rect x="1" y="1" width="318" height="68" rx="2"/>
  <line x1="16" y1="1" x2="16" y2="69"/><line x1="304" y1="1" x2="304" y2="69"/>
  <rect x="6" y="14.5" width="5" height="6" rx="3"/><rect x="309" y="14.5" width="5" height="6" rx="3"/>
  <rect x="6" y="49.5" width="5" height="6" rx="3"/><rect x="309" y="49.5" width="5" height="6" rx="3"/>
  <circle cx="34" cy="22" r="6"/><line x1="34" y1="22" x2="30.9" y2="18.3"/>
  <circle cx="34" cy="48" r="2.5"/>
  <rect x="50" y="18" width="30" height="4" rx="1"/><rect x="50" y="30" width="30" height="4" rx="1"/>
  <rect x="96" y="14" width="92" height="26" rx="1"/><path d="M102 22h44m-44 8h62"/>
  <rect x="96.0" y="48" width="10" height="6" rx="1"/>
  <rect x="109.7" y="48" width="10" height="6" rx="1"/>
  <rect x="123.4" y="48" width="10" height="6" rx="1"/>
  <rect x="137.1" y="48" width="10" height="6" rx="1"/>
  <rect x="150.8" y="48" width="10" height="6" rx="1"/>
  <rect x="164.5" y="48" width="10" height="6" rx="1"/>
  <rect x="178.2" y="48" width="10" height="6" rx="1"/>
  <rect x="202" y="14" width="10" height="6" rx="1"/>
  <rect x="218" y="14" width="10" height="6" rx="1"/>
  <rect x="234" y="14" width="10" height="6" rx="1"/>
  <rect x="250" y="14" width="10" height="6" rx="1"/>
  <rect x="266" y="14" width="10" height="6" rx="1"/>
  <rect x="282" y="14" width="10" height="6" rx="1"/>
  <rect x="202" y="27" width="10" height="6" rx="1"/>
  <rect x="218" y="27" width="10" height="6" rx="1"/>
  <rect x="234" y="27" width="10" height="6" rx="1"/>
  <rect x="250" y="27" width="10" height="6" rx="1"/>
  <rect x="266" y="27" width="10" height="6" rx="1"/>
  <rect x="282" y="27" width="10" height="6" rx="1"/>
  <rect x="202" y="40" width="10" height="6" rx="1"/>
  <rect x="218" y="40" width="10" height="6" rx="1"/>
  <rect x="234" y="40" width="10" height="6" rx="1"/>
  <rect x="250" y="40" width="10" height="6" rx="1"/>
  <rect x="266" y="40" width="10" height="6" rx="1"/>
  <rect x="282" y="40" width="10" height="6" rx="1"/>

</svg>
