<svg xmlns="http://www.w3.org/2000/svg" viewBox="0 0 320 136" fill="none" stroke="currentColor" stroke-width="1.2" stroke-linecap="round" stroke-linejoin="round">
  <rect x="1" y="1" width="318" height="134" rx="1.5"/>
  <line x1="3.5" y1="1" x2="3.5" y2="135"/>
  <line x1="316.5" y1="1" x2="316.5" y2="135"/>
  <line x1="3.5" y1="10.5" x2="316.5" y2="10.5"/>
  <rect x="18" y="3" width="42" height="5" rx="1"/>
  <rect x="186" y="3" width="127" height="5" rx="1"/>
  <rect x="141" y="3.2" width="29" height="4.6" rx="1"/>
  <rect x="6" y="16" width="24" height="49" rx="0.6"/>
  <line x1="6" y1="41" x2="30" y2="41"/>
  <circle cx="12" cy="23" r="3"/>
  <line x1="12" y1="21.95" x2="12" y2="20.45"/>
  <circle cx="23" cy="28" r="2.6"/>
  <line x1="23" y1="27.09" x2="23" y2="25.79"/>
  <rect x="8" y="34" width="9" height="3.6" rx="0.5"/>
  <line x1="12.5" y1="34" x2="12.5" y2="37.6"/>
  <rect x="24" y="34.7" width="3" height="2.6" rx="0.78"/>
  <circle cx="12" cy="48" r="3"/>
  <line x1="12" y1="46.95" x2="12" y2="45.45"/>
  <circle cx="23" cy="53" r="2.6"/>
  <line x1="23" y1="52.09" x2="23" y2="50.79"/>
  <rect x="8" y="59" width="9" height="3.6" rx="0.5"/>
  <line x1="12.5" y1="59" x2="12.5" y2="62.6"/>
  <rect x="24" y="59.7" width="3" height="2.6" rx="0.78"/>
  <rect x="30.5" y="16" width="29.5" height="49" rx="0.6"/>
  <circle cx="36" cy="28" r="2.8"/>
  <line x1="36" y1="27.02" x2="36" y2="25.62"/>
  <rect x="42.5" y="24.2" width="3" height="1.6" rx="0.48"/>
  <rect x="42.5" y="29.7" width="3" height="1.6" rx="0.48"/>
  <rect x="50.5" y="27" width="8" height="3.6" rx="0.5"/>
  <line x1="54.5" y1="27" x2="54.5" y2="30.6"/>
  <rect x="42.5" y="35.7" width="3" height="1.6" rx="0.48"/>
  <rect x="52.5" y="35.7" width="3" height="1.6" rx="0.48"/>
  <circle cx="36" cy="44" r="2.8"/>
  <line x1="36" y1="43.02" x2="36" y2="41.62"/>
  <circle cx="49" cy="44" r="2.8"/>
  <line x1="49" y1="43.02" x2="49" y2="41.62"/>
  <circle cx="42.8" cy="41.7" r="1"/>
  <circle cx="42.8" cy="46.6" r="1"/>
  <circle cx="36" cy="57" r="2.8"/>
  <line x1="36" y1="56.02" x2="36" y2="54.62"/>
  <circle cx="49" cy="57" r="2.8"/>
  <line x1="49" y1="56.02" x2="49" y2="54.62"/>
  <circle cx="42.8" cy="54.7" r="1"/>
  <circle cx="42.8" cy="59.6" r="1"/>
  <circle cx="56.5" cy="41.7" r="1"/>
  <circle cx="56.5" cy="46.6" r="1"/>
  <rect x="55" y="56.2" width="3" height="1.6" rx="0.48"/>
  <rect x="61" y="16" width="48.6" height="49" rx="0.6"/>
  <line x1="85.3" y1="16" x2="85.3" y2="65"/>
  <circle cx="68" cy="29" r="3.2"/>
  <line x1="68" y1="27.88" x2="68" y2="26.28"/>
  <circle cx="101" cy="29" r="3.2"/>
  <line x1="101" y1="27.88" x2="101" y2="26.28"/>
  <circle cx="85.3" cy="29" r="2.8"/>
  <line x1="85.3" y1="28.02" x2="85.3" y2="26.62"/>
  <circle cx="78.8" cy="29" r="1.1"/>
  <circle cx="91.8" cy="29" r="1.1"/>
  <rect x="76" y="34.5" width="7.5" height="3.6" rx="0.5"/>
  <line x1="79.75" y1="34.5" x2="79.75" y2="38.1"/>
  <rect x="87.5" y="34.5" width="7.5" height="3.6" rx="0.5"/>
  <line x1="91.25" y1="34.5" x2="91.25" y2="38.1"/>
  <circle cx="70" cy="46" r="2.6"/>
  <line x1="70" y1="45.09" x2="70" y2="43.79"/>
  <circle cx="79" cy="46" r="2.6"/>
  <line x1="79" y1="45.09" x2="79" y2="43.79"/>
  <circle cx="91.5" cy="46" r="2.6"/>
  <line x1="91.5" y1="45.09" x2="91.5" y2="43.79"/>
  <circle cx="100.5" cy="46" r="2.6"/>
  <line x1="100.5" y1="45.09" x2="100.5" y2="43.79"/>
  <rect x="66" y="57.45" width="17" height="1.1" rx="0.5"/>
  <circle cx="73.65" cy="58" r="1"/>
  <rect x="88" y="57.45" width="18" height="1.1" rx="0.5"/>
  <circle cx="97.9" cy="58" r="1"/>
  <rect x="83.9" y="57.2" width="2.8" height="1.6" rx="0.48"/>
  <rect x="6" y="66" width="54" height="15" rx="0.6"/>
  <circle cx="13" cy="74" r="2.6"/>
  <line x1="13" y1="73.09" x2="13" y2="71.79"/>
  <circle cx="23" cy="74" r="2.6"/>
  <line x1="23" y1="73.09" x2="23" y2="71.79"/>
  <circle cx="40" cy="74" r="3"/>
  <line x1="40" y1="72.95" x2="40" y2="71.45"/>
  <rect x="29.9" y="69.7" width="3.2" height="1.6" rx="0.48"/>
  <rect x="29.9" y="76.2" width="3.2" height="1.6" rx="0.48"/>
  <circle cx="46.5" cy="71.8" r="0.9"/>
  <circle cx="46.5" cy="76.6" r="0.9"/>
  <circle cx="51.5" cy="71.8" r="0.9"/>
  <circle cx="51.5" cy="76.6" r="0.9"/>
  <rect x="55.5" y="74.7" width="3" height="2.6" rx="0.78"/>
  <rect x="61" y="66" width="27.5" height="15" rx="0.6"/>
  <circle cx="66.5" cy="74" r="2.6"/>
  <line x1="66.5" y1="73.09" x2="66.5" y2="71.79"/>
  <rect x="72.8" y="69.6" width="3.4" height="2.4" rx="0.72"/>
  <rect x="72.8" y="75.4" width="3.4" height="2.4" rx="0.72"/>
  <rect x="77.8" y="69.6" width="3.4" height="2.4" rx="0.72"/>
  <rect x="77.8" y="75.4" width="3.4" height="2.4" rx="0.72"/>
  <rect x="82.8" y="69.6" width="3.4" height="2.4" rx="0.72"/>
  <rect x="82.8" y="75.4" width="3.4" height="2.4" rx="0.72"/>
  <rect x="89" y="66" width="20.6" height="15" rx="0.6"/>
  <circle cx="94" cy="74" r="2.6"/>
  <line x1="94" y1="73.09" x2="94" y2="71.79"/>
  <rect x="102" y="69.5" width="5" height="9" rx="0.8"/>
  <rect x="110.4" y="16" width="45" height="8" rx="0.6"/>
  <rect x="110.4" y="25" width="45" height="25" rx="0.6"/>
  <rect x="116.45" y="30.5" width="1.1" height="15.5" rx="0.5"/>
  <circle cx="117" cy="32.83" r="1"/>
  <rect x="122.85" y="30.5" width="1.1" height="15.5" rx="0.5"/>
  <circle cx="123.4" cy="31.27" r="1"/>
  <rect x="130.05" y="30.5" width="1.1" height="15.5" rx="0.5"/>
  <circle cx="130.6" cy="32.05" r="1"/>
  <rect x="135.85" y="30.5" width="1.1" height="15.5" rx="0.5"/>
  <circle cx="136.4" cy="42.12" r="1"/>
  <rect x="142.45" y="30.5" width="1.1" height="15.5" rx="0.5"/>
  <circle cx="143" cy="44.45" r="1"/>
  <rect x="148.85" y="30.5" width="1.1" height="15.5" rx="0.5"/>
  <circle cx="149.4" cy="35.92" r="1"/>
  <rect x="110.4" y="51" width="45" height="15" rx="0.6"/>
  <circle cx="116.5" cy="58" r="2.8"/>
  <line x1="116.5" y1="57.02" x2="116.5" y2="55.62"/>
  <rect x="124" y="53" width="4" height="8" rx="0.6"/>
  <rect x="129" y="53" width="4" height="8" rx="0.6"/>
  <rect x="137.5" y="55.5" width="7.5" height="3.6" rx="0.5"/>
  <line x1="141.25" y1="55.5" x2="141.25" y2="59.1"/>
  <rect x="146.5" y="55.5" width="7.5" height="3.6" rx="0.5"/>
  <line x1="150.25" y1="55.5" x2="150.25" y2="59.1"/>
  <rect x="110.4" y="67" width="45" height="14" rx="0.6"/>
  <circle cx="116.5" cy="74" r="2.8"/>
  <line x1="116.5" y1="73.02" x2="116.5" y2="71.62"/>
  <rect x="124" y="70" width="4" height="7.6" rx="0.6"/>
  <rect x="128.6" y="70" width="4" height="7.6" rx="0.6"/>
  <rect x="133.2" y="70" width="4" height="7.6" rx="0.6"/>
  <rect x="137.8" y="70" width="4" height="7.6" rx="0.6"/>
  <rect x="146" y="72.5" width="7.5" height="3.6" rx="0.5"/>
  <line x1="149.75" y1="72.5" x2="149.75" y2="76.1"/>
  <rect x="156.2" y="16" width="70" height="34" rx="0.6"/>
  <line x1="191.2" y1="16" x2="191.2" y2="33"/>
  <circle cx="165" cy="28" r="4.4"/>
  <line x1="165" y1="26.46" x2="165" y2="24.26"/>
  <circle cx="216.5" cy="28" r="4.4"/>
  <line x1="216.5" y1="26.46" x2="216.5" y2="24.26"/>
  <circle cx="181" cy="28" r="2.8"/>
  <line x1="181" y1="27.02" x2="181" y2="25.62"/>
  <circle cx="201" cy="28" r="2.8"/>
  <line x1="201" y1="27.02" x2="201" y2="25.62"/>
  <rect x="171.9" y="26.1" width="3.4" height="1.8" rx="0.54"/>
  <rect x="189.5" y="25.6" width="3.4" height="1.8" rx="0.54"/>
  <rect x="161" y="40.5" width="8" height="3.6" rx="0.5"/>
  <line x1="165" y1="40.5" x2="165" y2="44.1"/>
  <rect x="212.5" y="40.5" width="8" height="3.6" rx="0.5"/>
  <line x1="216.5" y1="40.5" x2="216.5" y2="44.1"/>
  <rect x="187.2" y="40.5" width="8" height="3.6" rx="0.5"/>
  <line x1="191.2" y1="40.5" x2="191.2" y2="44.1"/>
  <circle cx="179.8" cy="41.5" r="2.8"/>
  <line x1="179.8" y1="40.52" x2="179.8" y2="39.12"/>
  <circle cx="202" cy="41.5" r="2.8"/>
  <line x1="202" y1="40.52" x2="202" y2="39.12"/>
  <rect x="156.2" y="51" width="70" height="31" rx="0.6"/>
  <rect x="177.8" y="53.8" width="27.4" height="7.6" rx="0.6"/>
  <circle cx="171" cy="57" r="1.9"/>
  <circle cx="210.5" cy="57" r="1.9"/>
  <rect x="180.4" y="62.3" width="3.2" height="1.4" rx="0.42"/>
  <rect x="185.9" y="62.3" width="3.2" height="1.4" rx="0.42"/>
  <rect x="191.4" y="62.3" width="3.2" height="1.4" rx="0.42"/>
  <rect x="196.9" y="62.3" width="3.2" height="1.4" rx="0.42"/>
  <rect x="159.9" y="54.8" width="3.2" height="1.4" rx="0.42"/>
  <rect x="218.9" y="54.8" width="3.2" height="1.4" rx="0.42"/>
  <rect x="159.9" y="58.8" width="3.2" height="1.4" rx="0.42"/>
  <rect x="218.9" y="58.8" width="3.2" height="1.4" rx="0.42"/>
  <rect x="159.9" y="63.3" width="3.2" height="1.4" rx="0.42"/>
  <rect x="218.9" y="63.3" width="3.2" height="1.4" rx="0.42"/>
  <rect x="159.9" y="66.8" width="3.2" height="1.4" rx="0.42"/>
  <rect x="218.9" y="66.8" width="3.2" height="1.4" rx="0.42"/>
  <rect x="164.9" y="66.8" width="3.2" height="1.4" rx="0.42"/>
  <rect x="173.4" y="66.8" width="3.2" height="1.4" rx="0.42"/>
  <rect x="181.4" y="66.8" width="3.2" height="1.4" rx="0.42"/>
  <rect x="189.4" y="66.8" width="3.2" height="1.4" rx="0.42"/>
  <rect x="197.4" y="66.8" width="3.2" height="1.4" rx="0.42"/>
  <rect x="205.4" y="66.8" width="3.2" height="1.4" rx="0.42"/>
  <rect x="158.25" y="71" width="3.69" height="6.4" rx="0.5"/>
  <rect x="162.44" y="71" width="3.69" height="6.4" rx="0.5"/>
  <rect x="166.62" y="71" width="3.69" height="6.4" rx="0.5"/>
  <rect x="170.81" y="71" width="3.69" height="6.4" rx="0.5"/>
  <rect x="175" y="71" width="3.69" height="6.4" rx="0.5"/>
  <rect x="179.19" y="71" width="3.69" height="6.4" rx="0.5"/>
  <rect x="183.38" y="71" width="3.69" height="6.4" rx="0.5"/>
  <rect x="187.56" y="71" width="3.69" height="6.4" rx="0.5"/>
  <rect x="191.75" y="71" width="3.69" height="6.4" rx="0.5"/>
  <rect x="195.94" y="71" width="3.69" height="6.4" rx="0.5"/>
  <rect x="200.12" y="71" width="3.69" height="6.4" rx="0.5"/>
  <rect x="204.31" y="71" width="3.69" height="6.4" rx="0.5"/>
  <rect x="208.5" y="71" width="3.69" height="6.4" rx="0.5"/>
  <rect x="212.69" y="71" width="3.69" height="6.4" rx="0.5"/>
  <rect x="216.88" y="71" width="3.69" height="6.4" rx="0.5"/>
  <rect x="221.06" y="71" width="3.69" height="6.4" rx="0.5"/>
  <rect x="226.8" y="16" width="39.4" height="25" rx="0.6"/>
  <rect x="226.8" y="41" width="39.4" height="25" rx="0.6"/>
  <rect x="231.45" y="20.5" width="1.1" height="15.5" rx="0.5"/>
  <circle cx="232" cy="32.12" r="1"/>
  <rect x="238.45" y="20.5" width="1.1" height="15.5" rx="0.5"/>
  <circle cx="239" cy="35.23" r="1"/>
  <rect x="245.45" y="20.5" width="1.1" height="15.5" rx="0.5"/>
  <circle cx="246" cy="25.93" r="1"/>
  <rect x="252.45" y="20.5" width="1.1" height="15.5" rx="0.5"/>
  <circle cx="253" cy="22.05" r="1"/>
  <rect x="258.4" y="21.2" width="3.2" height="1.6" rx="0.48"/>
  <rect x="258.4" y="26.2" width="3.2" height="1.6" rx="0.48"/>
  <rect x="258.4" y="31.2" width="3.2" height="2.6" rx="0.78"/>
  <rect x="231.45" y="45.5" width="1.1" height="15.5" rx="0.5"/>
  <circle cx="232" cy="47.05" r="1"/>
  <rect x="238.45" y="45.5" width="1.1" height="15.5" rx="0.5"/>
  <circle cx="239" cy="47.05" r="1"/>
  <rect x="245.45" y="45.5" width="1.1" height="15.5" rx="0.5"/>
  <circle cx="246" cy="57.12" r="1"/>
  <rect x="252.45" y="45.5" width="1.1" height="15.5" rx="0.5"/>
  <circle cx="253" cy="50.15" r="1"/>
  <rect x="258.4" y="46.2" width="3.2" height="1.6" rx="0.48"/>
  <rect x="258.4" y="51.2" width="3.2" height="1.6" rx="0.48"/>
  <rect x="258.4" y="56.2" width="3.2" height="2.6" rx="0.78"/>
  <rect x="266.8" y="16" width="10.6" height="50" rx="0.6"/>
  <circle cx="272.1" cy="27" r="2.6"/>
  <line x1="272.1" y1="26.09" x2="272.1" y2="24.79"/>
  <circle cx="272.1" cy="46" r="2.6"/>
  <line x1="272.1" y1="45.09" x2="272.1" y2="43.79"/>
  <circle cx="272.1" cy="58" r="2.6"/>
  <line x1="272.1" y1="57.09" x2="272.1" y2="55.79"/>
  <rect x="278" y="16" width="22.4" height="50" rx="0.6"/>
  <circle cx="285" cy="27" r="2.6"/>
  <line x1="285" y1="26.09" x2="285" y2="24.79"/>
  <rect x="283.4" y="35.2" width="3.2" height="1.6" rx="0.48"/>
  <circle cx="285" cy="46" r="2.6"/>
  <line x1="285" y1="45.09" x2="285" y2="43.79"/>
  <circle cx="295.5" cy="27" r="2.6"/>
  <line x1="295.5" y1="26.09" x2="295.5" y2="24.79"/>
  <rect x="293.9" y="35.2" width="3.2" height="1.6" rx="0.48"/>
  <circle cx="295.5" cy="46" r="2.6"/>
  <line x1="295.5" y1="45.09" x2="295.5" y2="43.79"/>
  <circle cx="290" cy="57.5" r="2.6"/>
  <line x1="290" y1="56.59" x2="290" y2="55.29"/>
  <circle cx="296.5" cy="54.8" r="1"/>
  <circle cx="296.5" cy="60.2" r="1"/>
  <rect x="301" y="16" width="13" height="50" rx="0.6"/>
  <circle cx="307.5" cy="27" r="2.6"/>
  <line x1="307.5" y1="26.09" x2="307.5" y2="24.79"/>
  <rect x="305.9" y="34.2" width="3.2" height="1.6" rx="0.48"/>
  <circle cx="307.5" cy="46" r="2.6"/>
  <line x1="307.5" y1="45.09" x2="307.5" y2="43.79"/>
  <circle cx="307.5" cy="58" r="2.6"/>
  <line x1="307.5" y1="57.09" x2="307.5" y2="55.79"/>
  <rect x="226.8" y="67" width="46.4" height="15" rx="0.6"/>
  <rect x="228.2" y="70" width="4.4" height="7.6" rx="0.6"/>
  <rect x="233.2" y="70" width="4.4" height="7.6" rx="0.6"/>
  <rect x="240.8" y="70" width="4.4" height="7.6" rx="0.6"/>
  <rect x="245.8" y="70" width="4.4" height="7.6" rx="0.6"/>
  <circle cx="255.5" cy="74" r="2.6"/>
  <line x1="255.5" y1="73.09" x2="255.5" y2="71.79"/>
  <rect x="261.8" y="70" width="4.4" height="7.6" rx="0.6"/>
  <rect x="266.8" y="70" width="4.4" height="7.6" rx="0.6"/>
  <rect x="273.8" y="67" width="17.2" height="15" rx="0.6"/>
  <rect x="275.5" y="70" width="4.2" height="7.6" rx="0.6"/>
  <rect x="280.3" y="70" width="4.2" height="7.6" rx="0.6"/>
  <rect x="285.1" y="70" width="4.2" height="7.6" rx="0.6"/>
  <rect x="291.6" y="67" width="22.4" height="15" rx="0.6"/>
  <line x1="3.5" y1="84.5" x2="316.5" y2="84.5"/>
  <circle cx="13" cy="90.5" r="2.6"/>
  <line x1="13" y1="89.59" x2="13" y2="88.29"/>
  <rect x="18.2" y="87.6" width="3.6" height="6.4" rx="0.6"/>
  <rect x="22.6" y="87.6" width="3.6" height="6.4" rx="0.6"/>
  <rect x="30" y="87.6" width="3.6" height="6.4" rx="0.6"/>
  <rect x="14.6" y="100.5" width="3" height="23" rx="0.8"/>
  <rect x="26.4" y="100.5" width="3" height="23" rx="0.8"/>
  <line x1="14.6" y1="112" x2="17.6" y2="112"/>
  <line x1="26.4" y1="112" x2="29.4" y2="112"/>
  <rect x="39.6" y="85.5" width="274.6" height="47.5" rx="0.4"/>
  <line x1="47.23" y1="117.5" x2="47.23" y2="133"/>
  <line x1="54.86" y1="117.5" x2="54.86" y2="133"/>
  <line x1="62.48" y1="85.5" x2="62.48" y2="133"/>
  <line x1="70.11" y1="117.5" x2="70.11" y2="133"/>
  <line x1="77.74" y1="117.5" x2="77.74" y2="133"/>
  <line x1="85.37" y1="117.5" x2="85.37" y2="133"/>
  <line x1="92.99" y1="85.5" x2="92.99" y2="133"/>
  <line x1="100.62" y1="117.5" x2="100.62" y2="133"/>
  <line x1="108.25" y1="117.5" x2="108.25" y2="133"/>
  <line x1="115.88" y1="85.5" x2="115.88" y2="133"/>
  <line x1="123.51" y1="117.5" x2="123.51" y2="133"/>
  <line x1="131.13" y1="117.5" x2="131.13" y2="133"/>
  <line x1="138.76" y1="117.5" x2="138.76" y2="133"/>
  <line x1="146.39" y1="85.5" x2="146.39" y2="133"/>
  <line x1="154.02" y1="117.5" x2="154.02" y2="133"/>
  <line x1="161.64" y1="117.5" x2="161.64" y2="133"/>
  <line x1="169.27" y1="85.5" x2="169.27" y2="133"/>
  <line x1="176.9" y1="117.5" x2="176.9" y2="133"/>
  <line x1="184.53" y1="117.5" x2="184.53" y2="133"/>
  <line x1="192.16" y1="117.5" x2="192.16" y2="133"/>
  <line x1="199.78" y1="85.5" x2="199.78" y2="133"/>
  <line x1="207.41" y1="117.5" x2="207.41" y2="133"/>
  <line x1="215.04" y1="117.5" x2="215.04" y2="133"/>
  <line x1="222.67" y1="85.5" x2="222.67" y2="133"/>
  <line x1="230.29" y1="117.5" x2="230.29" y2="133"/>
  <line x1="237.92" y1="117.5" x2="237.92" y2="133"/>
  <line x1="245.55" y1="117.5" x2="245.55" y2="133"/>
  <line x1="253.18" y1="85.5" x2="253.18" y2="133"/>
  <line x1="260.81" y1="117.5" x2="260.81" y2="133"/>
  <line x1="268.43" y1="117.5" x2="268.43" y2="133"/>
  <line x1="276.06" y1="85.5" x2="276.06" y2="133"/>
  <line x1="283.69" y1="117.5" x2="283.69" y2="133"/>
  <line x1="291.32" y1="117.5" x2="291.32" y2="133"/>
  <line x1="298.94" y1="117.5" x2="298.94" y2="133"/>
  <line x1="306.57" y1="85.5" x2="306.57" y2="133"/>
  <rect x="44.48" y="85.5" width="4.42" height="32" rx="0.3"/>
  <rect x="53.17" y="85.5" width="4.42" height="32" rx="0.3"/>
  <rect x="67.24" y="85.5" width="4.42" height="32" rx="0.3"/>
  <rect x="75.53" y="85.5" width="4.42" height="32" rx="0.3"/>
  <rect x="83.82" y="85.5" width="4.42" height="32" rx="0.3"/>
  <rect x="97.88" y="85.5" width="4.42" height="32" rx="0.3"/>
  <rect x="106.57" y="85.5" width="4.42" height="32" rx="0.3"/>
  <rect x="120.63" y="85.5" width="4.42" height="32" rx="0.3"/>
  <rect x="128.92" y="85.5" width="4.42" height="32" rx="0.3"/>
  <rect x="137.21" y="85.5" width="4.42" height="32" rx="0.3"/>
  <rect x="151.27" y="85.5" width="4.42" height="32" rx="0.3"/>
  <rect x="159.96" y="85.5" width="4.42" height="32" rx="0.3"/>
  <rect x="174.02" y="85.5" width="4.42" height="32" rx="0.3"/>
  <rect x="182.32" y="85.5" width="4.42" height="32" rx="0.3"/>
  <rect x="190.61" y="85.5" width="4.42" height="32" rx="0.3"/>
  <rect x="204.67" y="85.5" width="4.42" height="32" rx="0.3"/>
  <rect x="213.36" y="85.5" width="4.42" height="32" rx="0.3"/>
  <rect x="227.42" y="85.5" width="4.42" height="32" rx="0.3"/>
  <rect x="235.71" y="85.5" width="4.42" height="32" rx="0.3"/>
  <rect x="244" y="85.5" width="4.42" height="32" rx="0.3"/>
  <rect x="258.06" y="85.5" width="4.42" height="32" rx="0.3"/>
  <rect x="266.75" y="85.5" width="4.42" height="32" rx="0.3"/>
  <rect x="280.81" y="85.5" width="4.42" height="32" rx="0.3"/>
  <rect x="289.1" y="85.5" width="4.42" height="32" rx="0.3"/>
  <rect x="297.4" y="85.5" width="4.42" height="32" rx="0.3"/>
</svg>
